<?xml version="1.0" encoding="UTF-8"?>
<svg xmlns="http://www.w3.org/2000/svg" width="410" height="404" viewBox="0 0 410 404" fill="none">
  <path d="M399.641 59.5246L215.643 388.545C211.844 395.338 202.084 395.378 198.228 388.618L10.582 59.5563C6.38048 52.1896 12.6802 43.2665 21.0281 44.7586L205.223 77.6824C206.398 77.8924 207.601 77.8904 208.776 77.6763L389.119 44.8058C397.439 43.2894 403.768 52.1434 399.641 59.5246Z" fill="#447AFF"/>
  <path d="M292.965 1.5744L206.527 141.75C205.429 143.493 205.661 145.722 207.053 147.222L264.994 209.383C266.61 211.123 269.264 211.538 271.343 210.389L352.984 162.219C357.846 159.431 357.931 152.471 353.134 149.572L292.965 1.5744Z" fill="#00C2FF"/>
  <path d="M124.531 162.947L10.8613 58.5052C6.44532 54.4703 9.22896 47.3798 15.1266 47.3798H164.838C167.171 47.3798 169.3 48.6519 170.394 50.6928L204.668 122.899C205.806 125.033 205.301 127.686 203.343 129.213L124.531 162.947Z" fill="#76EBFF"/>
</svg>
